<svg xmlns="http://www.w3.org/2000/svg" version="1.1" xmlns:xlink="http://www.w3.org/1999/xlink" viewBox="0 0 9.093974920884525 3.7144875653528797"><g transform="matrix(0.7767872754473208,0,0,0.7767872754473208,3.15451340183989,1.3671054249143304)"><g transform="matrix(1,0,0,1,0,0)" clip-path="url(#SvgjsClipPath48383)"><g clip-path="url(#SvgjsClipPath483811d615cd4-fcaa-4c7a-8cdb-b8c5da788997)"><path d=" M -0.8924140287023234 1.1157082977901982 C -0.9379442446959889 1.0897813692382503 -1.0057652956032197 1.107013291263631 -1.0471456221182958 1.1257075552957507 C -1.0710803378882625 1.1366467946202048 -1.093374606277511 1.150866706856546 -1.1133857627479684 1.1679573824634835 C -1.109433487054074 1.080216862059025 -1.1287205924402794 0.9871012467108684 -1.2296617136623467 0.9602652947493242 C -1.2764460604978045 0.9433683967934889 -1.328738681892084 0.9601982059778564 -1.3568854682488127 1.0012108709380727 C -1.3747131788438125 0.9484779453659316 -1.4207027563360124 0.9102679275093344 -1.4758094438781004 0.9024039785907081 C -1.5486498849165768 0.8898357418841225 -1.6019660840272147 0.93797445983576 -1.6384851114388006 1.0000647109868432 C -1.6532270997770273 0.9358007082041175 -1.6826320309396028 0.8770698913928443 -1.7378848451402489 0.856913285353982 C -1.8253882290030745 0.8248998522334352 -1.8733293331700156 0.8882153088496265 -1.901430013353606 0.9592377030689112 C -1.9087505776463425 0.9452697208239718 -1.9170720769086482 0.93184965217238 -1.9263293502251417 0.9190825820189439 C -2.0164807588028766 0.7844680718848938 -2.0680579566082007 0.9141027146446365 -2.0702712309967817 0.9365121178290186 C -2.0949729540836226 1.1898925125645992 -2.1287649112664213 1.4439843169250794 -2.120978928149449 1.7004474867018997 C -2.120227995767609 1.7246354139485351 -2.1016127772493656 1.7372036506551192 -2.0775038955166085 1.7445153606888235 C -1.8276015033916553 1.820478099525479 -1.6071830879431555 1.9026063884446067 -1.3649085879074185 1.9545392910623827 L -1.3646714513657847 1.9545392910623827 C -1.3347349188623185 1.9566872504842237 -1.3060237480574344 1.9422785805081846 -1.289854872480361 1.9169926719703847 C -1.1357161204184727 1.7026212383335433 -1.0020501564509587 1.4133937030543384 -0.8501642015345905 1.1828969845864066 C -0.8286638217598039 1.150369755625654 -0.8603215500678996 1.1171706397969396 -0.8924140287023234 1.1157082977901982 Z" fill="#eed9cb" transform="matrix(1,0,0,1,0,0)" fill-rule="nonzero"></path></g><g clip-path="url(#SvgjsClipPath483811d615cd4-fcaa-4c7a-8cdb-b8c5da788997)"><path d=" M -1.5599138706441766 1.6421909429738943 C -1.5069928991029284 1.495956742299796 -1.4515424711175877 1.3506710877922314 -1.404866095172693 1.2026188402989393 C -1.3642432385674526 1.2104280009116715 -1.3243338501135737 1.1861026042629712 -1.3126595032341326 1.1464174799317584 C -1.3058330371469 1.127339250999389 -1.3071164788446434 1.1062978279231892 -1.3162111000142707 1.0881907209146946 C -1.3253057211838977 1.0700836139062002 -1.3414181838412182 1.0564903341408316 -1.3607982211857688 1.0505747943548156 C -1.3568195969872474 1.0353717071856336 -1.352959541059544 1.0201554457641404 -1.349218053402657 1.0049260100903326 C -1.3478659089178167 0.9987875434175808 -1.3513939724881463 0.992625267174684 -1.3573721903403373 0.9906836237696994 C -1.3633504081925283 0.9887419803647146 -1.3698260639627333 0.9916551853688038 -1.3723388662119402 0.9974166862719329 C -1.4043918220894254 1.0759088815526794 -1.4305954099399463 1.1570886243052738 -1.4559294971378105 1.2385055035995018 C -1.4740457766492188 1.2242972534064236 -1.4978104895828088 1.2194848400452507 -1.5200272343366037 1.2255255527043079 C -1.5422439790903992 1.2315662653633634 -1.5602999446719164 1.2477496831140664 -1.5687274454415614 1.2691751629841237 C -1.5930734637159518 1.322649453122517 -1.5506260227635245 1.3644250072069832 -1.4967565050557414 1.369207260796594 C -1.5030801461659729 1.3889686392660674 -1.509403787276204 1.40841383568003 -1.5159645649280689 1.4278590320939886 C -1.5633918732548038 1.5694295474492916 -1.621292712170359 1.707443014680091 -1.6676133833028035 1.849369234847845 C -1.66970278470958 1.8580303575300778 -1.6647649366612538 1.866838452901729 -1.656286001935022 1.869574930612885 C -1.6478070672087908 1.872311408324041 -1.638651743850855 1.8680517203500093 -1.635283768126746 1.8598032426797277 C -1.6293948773428433 1.841583251730873 -1.6234269410450626 1.8234818290528363 -1.617103299934831 1.8053408836178604 C -1.5696759916080962 1.8243908524624342 -1.5164388380113367 1.7800858419338743 -1.5029615778951562 1.739930720883907 C -1.495244642533963 1.7193981561088538 -1.497175085524955 1.6964832032749588 -1.5082183623617884 1.6775310702996018 C -1.5192616391986218 1.658578937324246 -1.5382457220087447 1.6456010224925213 -1.5599138706441769 1.6421909429738943 Z M -1.3322627906758497 1.1323473784614948 C -1.3434872536465101 1.1742810235737169 -1.3689003863582525 1.1862564189262166 -1.3979100899514383 1.1828969845864052 C -1.3870808545501676 1.1473265033413547 -1.3755006867670563 1.105590472013829 -1.3658966568308926 1.0699014224979604 C -1.3529239151390084 1.073327075186673 -1.341948107634472 1.0819703047495473 -1.335576198308106 1.0937781790241403 C -1.3292042889817401 1.105586053298735 -1.3280048571087564 1.1195049300793969 -1.3322627906758497 1.1322288101906781 Z M -1.5423657665632846 1.280755330767237 C -1.5361307006984666 1.2658253842400995 -1.5233537482260842 1.2546089570607966 -1.5077419435549484 1.250360321450145 C -1.4921301388838126 1.2461116858394947 -1.4754312774966496 1.249306491236141 -1.4624902747896755 1.2590178144508153 C -1.4715014633717551 1.2879879952870628 -1.4804731291968958 1.3169186533663706 -1.489602886049792 1.3459678797164956 C -1.5259242996766833 1.3390909200091197 -1.5581748693388628 1.3198038146229143 -1.5423657665632846 1.280755330767237 Z M -1.5605462347551997 1.772378904330782 C -1.5755174124478108 1.7787259690025405 -1.5920921408123494 1.780259131376261 -1.6079735430819344 1.7767659303510048 C -1.594417237451876 1.7372431734120584 -1.5803076132246725 1.6977204164731137 -1.56615846624053 1.6581976595341685 C -1.5503915827940813 1.6617054017711577 -1.5369446233694168 1.671927526197622 -1.5293466658526946 1.6861812944989945 C -1.5217487083359722 1.700435062800366 -1.5207584247214592 1.7172972063153957 -1.5266357093015843 1.7323423515516287 C -1.532284041444917 1.7495392827027487 -1.544364276293947 1.7638854467145522 -1.5603486209705046 1.772378904330782 Z M -1.1740927174061893 1.3195271553243417 C -1.1519204507634406 1.2681475713037123 -1.130064366176204 1.2165703734983888 -1.1089196912138677 1.1647560391514307 C -1.1044140969228282 1.1537291899654651 -1.1235826340382167 1.1445599103556303 -1.1289972517388525 1.1552705774860839 C -1.1337795053284647 1.164835084665308 -1.1382850996195046 1.1745576828722892 -1.142988307695239 1.1841221900515135 C -1.1435753969841884 1.1833233552786757 -1.1442516509836071 1.1825940617498907 -1.145003968299125 1.181948438419871 C -1.156457262221654 1.174939633241762 -1.1672633445543303 1.1669243506302536 -1.1772940607182443 1.1579976477148701 C -1.185415836241675 1.1470006553367524 -1.1894291979070273 1.1335062511309493 -1.188637091959721 1.1198581872687878 C -1.1880569914867003 1.0897099375112898 -1.1711713204229137 1.062248026238198 -1.1445296952158583 1.0481243834246021 C -1.1343328239256099 1.0426307202100877 -1.1424349890980938 1.027691118087167 -1.153185178985487 1.0323152806490232 C -1.1884609358955187 1.046794885645014 -1.2122563420627623 1.0802807287129452 -1.2143268839700359 1.1183563225051085 C -1.216263499060044 1.151753052118518 -1.1902180022372788 1.1992198832021912 -1.1506161997844555 1.199733679042397 L -1.1503790632428217 1.199733679042397 C -1.1926288904105546 1.2870789718774664 -1.2315983287523549 1.3758075612054 -1.270567767094155 1.4645361505333332 C -1.2600547137483957 1.428570441718891 -1.2803298880580747 1.402801604194699 -1.3283895604958327 1.3920118915503679 C -1.4056960730684107 1.374700924011111 -1.4646245036643788 1.5101454120408762 -1.365185247205991 1.529709176725654 C -1.3310435635277489 1.5353047506048965 -1.2971333015329702 1.518516547760786 -1.2808832066552198 1.4879731453981258 C -1.2868906657099397 1.5016743678036284 -1.2929244732692853 1.5153624159568166 -1.298984629333257 1.5290372898576923 C -1.3154260962198583 1.566188681380301 -1.3329346775438116 1.6030634136043371 -1.3506803954093978 1.6399776685853138 C -1.3520228151927727 1.6388556226357651 -1.3536515683060828 1.6381302115852985 -1.3553836034851323 1.6378829624675486 C -1.3863022322289398 1.6338818686479946 -1.4161839241396732 1.6506381077140668 -1.4288959313915712 1.6791051979548697 C -1.4390137571679416 1.703332647958443 -1.4370376193209942 1.7451082020429092 -1.405656550311471 1.7559374374441807 C -1.4293702044748389 1.8076727262772616 -1.4519376986869765 1.8598427654366696 -1.4703948261774644 1.913198487304245 C -1.4766394217738177 1.9311418189545266 -1.4470368768265471 1.9408644171615066 -1.4408318039871326 1.9227629944834703 C -1.3980286582222547 1.7988196287229359 -1.3334089506270783 1.681397517857329 -1.2801717970303188 1.5616040415753867 C -1.270106668263201 1.5389706761016848 -1.2600547137483955 1.5163109621233533 -1.2500159334859031 1.4936248996403987 L -1.2494230921318192 1.494020127209788 C -1.1352813700921445 1.5499053055214569 -1.0612947691024384 1.3673892139774053 -1.1738951036214942 1.3195271553243417 Z M -1.3578735371722863 1.5089597293327084 C -1.4299235230719842 1.5068255004580067 -1.381310532037081 1.4007464208338756 -1.3315118582940095 1.4099157004437117 C -1.257801916602876 1.423392960559891 -1.3003284030691815 1.5106987306380213 -1.3576759233875917 1.5089597293327084 Z M -1.397396294111232 1.738191719578594 C -1.402367790234536 1.7322723881729702 -1.406369709304802 1.7256025230558594 -1.4092531211929158 1.718430341109121 C -1.4114460701077416 1.7091756243423966 -1.4105436371304783 1.6994571153564832 -1.4066841419918843 1.690764411251859 C -1.399332539091708 1.6697556942896212 -1.3798413668901692 1.6554119492073305 -1.3575968778737137 1.654640611409663 C -1.3710741379898943 1.682346064023863 -1.384274738807502 1.7102096076658189 -1.3973567713542931 1.7381126740647157 Z M -1.2328630569744012 1.4694369723937633 C -1.2346509490860553 1.4685466160620702 -1.2365741395869527 1.4679589745201307 -1.2385543339736098 1.4676979710884508 C -1.21942531961516 1.4244073779879929 -1.2004807447890922 1.38105091362597 -1.1817206094954058 1.3376285780023798 C -1.1495736791285396 1.3542058010334053 -1.1352737634098111 1.392487154356986 -1.1486795846944469 1.4260805080317378 C -1.1522460207935628 1.44417426580819 -1.1638794029286517 1.4596491148838897 -1.1802698836828502 1.4681022608999106 C -1.196660364437049 1.476555406915931 -1.2160136696871044 1.477061479751408 -1.2328235342174627 1.4694764951507016 Z M -1.850445656902366 1.457580145312079 C -1.8495137401933959 1.4347613195736613 -1.8589840095183165 1.4127517568285124 -1.8761940666555847 1.3977390552007343 C -1.8934041237928527 1.382726353572957 -1.9164955617744437 1.3763316412837652 -1.9389766324456041 1.3803526782533786 C -1.9164807279087928 1.2590784836906663 -1.9013029074928451 1.136560477672191 -1.8935254619658166 1.013462925589145 C -1.8092629441719847 1.0337776226557658 -1.7317588178147123 0.9077790735344058 -1.8102905358523973 0.8544233516668289 C -1.813305181703012 0.8523759340347679 -1.8171831136550183 0.8520923365631454 -1.8204635522425372 0.8536793876770734 C -1.8237439908300561 0.8552664387910001 -1.8259285593817978 0.8584830276663531 -1.826194352049572 0.8621174963788969 C -1.8264601447173463 0.8657519650914405 -1.8247667812710455 0.8692521513706308 -1.8217521353456996 0.8712995688926568 C -1.7664202756501677 0.9147746015125995 -1.8355060547794446 0.9977723910843841 -1.8928930978547938 0.9938201153904898 C -1.8924583475284655 0.9837022896141205 -1.891984074445198 0.97358446383775 -1.8917074151466253 0.9634666380613794 C -1.891879800136509 0.9584301251115914 -1.895857549427789 0.9543525617455153 -1.9008882445937032 0.9540554331104605 C -1.9059189397596175 0.953758304475407 -1.9103490260654357 0.9573392747003122 -1.9111130888036476 0.9623204781101513 C -1.9525724608326014 1.2181908065328848 -1.9855344401196824 1.4756815679901143 -2.027942358315171 1.7314728508989727 C -2.030353246488447 1.7460962709663828 -2.006165319241812 1.7472819536745505 -2.0037149083115975 1.7328956701487752 C -1.9913047626327682 1.6606480704643833 -1.9773927521902595 1.5879261976967212 -1.9636783555324455 1.514848620116612 C -1.9418903932221694 1.5297696310944073 -1.9137070228765267 1.5316455023264695 -1.8901337481994394 1.519743712913439 C -1.8665604735223522 1.5078419235004081 -1.8513362701383673 1.484050225615602 -1.8504061341454272 1.4576591908259577 Z M -1.9549833490058772 1.4949686733763223 C -1.9562951149827321 1.493983530520452 -1.9578055953008129 1.4932957225184684 -1.9594098977830392 1.4929530127724342 C -1.9534814842421973 1.4613348072212795 -1.9476848132244853 1.4295848591469928 -1.942019884729903 1.3977031685495764 C -1.92519468512075 1.394223488833843 -1.9076911438357282 1.398337819312697 -1.8941780369136216 1.4089487313434157 C -1.8806649299915152 1.419559643374134 -1.8725166134028157 1.4355879498840554 -1.8719065139202133 1.452758368965525 C -1.8706192614559474 1.4729706778534157 -1.8814735740862354 1.4920130315718194 -1.899521140965254 1.5012043197967366 C -1.9175687078442727 1.510395608021652 -1.9393533639215748 1.5079756705417626 -1.9549438262489383 1.495047718890198 Z M -1.7323911819257352 1.772378904330782 C -1.7493606207843424 1.749360517257918 -1.7781761377765262 1.7383251157317217 -1.8061801691307469 1.744120133119437 C -1.778514239273485 1.6347606646693746 -1.7548005851101176 1.5241364679972662 -1.726857995954283 1.4149350905749585 C -1.6917222650355601 1.2774749419413056 -1.6557170334641809 1.1402519298492861 -1.6292763090720261 1.0007365978548088 C -1.6271025574403841 0.9893540438563921 -1.6447692297920928 0.9829513572322828 -1.6478520048333305 0.9947291388000885 C -1.6557565562211196 1.0251616616430774 -1.663423971067275 1.055752275513822 -1.6712494769411863 1.0861847983568096 C -1.6721571495346332 1.084443649091487 -1.6737695606766192 1.0831767546227824 -1.6756760257183485 1.0827067957461818 C -1.705134674909078 1.071534480882458 -1.7380082427928722 1.0738217480899137 -1.7656358463081854 1.0889659930548297 C -1.7932634498234985 1.1041102380197458 -1.8128743036031176 1.1305926372827129 -1.8193017244344765 1.1614361275685614 C -1.8247302643098544 1.1908879635582414 -1.817040382582968 1.221242571559087 -1.7982441950374195 1.2445574385347768 C -1.7794480074918715 1.267872305510468 -1.7514159786085775 1.2818272997614422 -1.721482901010586 1.2827709913711247 C -1.7319959543563457 1.3240327496153825 -1.7423509166743494 1.3652549851027036 -1.7531011065617428 1.4064376978330864 C -1.7871697230431138 1.5374951598426287 -1.811001945477298 1.6745205581499554 -1.8525798857770688 1.803127609229283 C -1.8582711627762771 1.8206757133101754 -1.8288662316137014 1.8300821294616436 -1.8239654097532723 1.8123759343529948 C -1.8194334669576064 1.7955655884016317 -1.8149937439281316 1.7787157196933276 -1.8106462406648476 1.7618263282280844 C -1.8099249140707863 1.761923491489783 -1.8091938156272667 1.761923491489783 -1.8084724890332056 1.7618263282280844 C -1.787314824616813 1.755890412527418 -1.7646407369112285 1.762876566339909 -1.7504926046037723 1.7796906143644877 C -1.7338930466894151 1.799017242507631 -1.7433785083547622 1.8179091203244475 -1.7533777658603154 1.8361686340302397 C -1.7555608275228631 1.8402744283276151 -1.7545585241377606 1.8453490382438704 -1.7509783947543338 1.8483165251659637 C -1.747398265370907 1.851284012088057 -1.7422258013052054 1.8513275249251389 -1.7385962547651497 1.848420688681311 C -1.7174337946553928 1.8284039408405812 -1.7147422080933206 1.7956619827880247 -1.7323516591687966 1.7724579498446582 Z M -1.7161473288238285 1.2537612877779367 C -1.738305474635279 1.2538507413532953 -1.7593257138357485 1.2439566016620887 -1.7733772313777514 1.2268234092418062 C -1.787428748919755 1.2096902168215236 -1.7930172517945397 1.1871399819692534 -1.7885925422929159 1.1654279260193925 C -1.776270799686717 1.1165776991792666 -1.7273705756152533 1.0863519701272193 -1.678165959405502 1.0971721247858346 C -1.6766368271050056 1.0974030093591702 -1.6750760959705775 1.0970655539787535 -1.673778933385279 1.0962235786192989 C -1.6872166707445206 1.1488678908619745 -1.7008124991315179 1.201512203104649 -1.7141316682199426 1.2543146063750819 C -1.7148341591951328 1.254118760869922 -1.7155465765855231 1.2539604458942792 -1.7162658970946454 1.253840333291814 Z M -2.1046560295336643 1.3833564077807403 C -2.109351964312229 1.3819560297500204 -2.11273873890591 1.377860374367109 -2.1132323375391686 1.3729850054105373 C -2.113725936172427 1.3681096364539669 -2.1112287886924492 1.3634182731524072 -2.106908826679184 1.3611050956241137 C -2.0914554287160563 1.3527262711530574 -2.074223506690676 1.3541886131597973 -2.0609043376022513 1.3410275350991303 C -2.049186270036405 1.3295159273347035 -2.041718220491946 1.3143708343219673 -2.0397201398829763 1.2980662983064966 C -2.036532910979794 1.280589242777941 -2.0414223249713253 1.262608387748251 -2.0530210823767523 1.2491519868669054 C -2.064619839782179 1.2356955859855587 -2.081683032202318 1.2282079307308982 -2.0994390256177233 1.2287829053925243 C -2.1035566048877756 1.228870058739156 -2.1073866411361197 1.226679403045804 -2.1093991009142865 1.2230860674933886 C -2.1114115606924537 1.2194927319409732 -2.11127839113008 1.2150824693753086 -2.1090527911713894 1.2116171036550896 C -2.106827191212699 1.2081517379348694 -2.1028719578997244 1.206196161428982 -2.0987671387497615 1.2065315932358995 C -2.0746850975731363 1.2060996862953717 -2.0515829166028414 1.216057053252822 -2.0353606513989604 1.2338606866598796 C -2.01913838619508 1.2516643200669373 -2.0113666809200414 1.2755904672584004 -2.0140303478726618 1.2995286403132391 C -2.018417373892885 1.3342296209056301 -2.056161606769578 1.4051334468540984 -2.1046165067767255 1.3834354532946174 Z M -1.63137101518979 1.4295980333993064 C -1.6323545388809748 1.4296928413012635 -1.633323161774112 1.4299051422093476 -1.6342561764463333 1.4302303975103277 C -1.715831146768317 1.4214168227129451 -1.738359118223516 1.5736584824417652 -1.6363113598071584 1.5741327555250328 C -1.5507841137912801 1.5745675058513573 -1.536318784751626 1.4260409852748 -1.6313314924328517 1.4296770789131825 Z M -1.6358370867238912 1.551920966125342 C -1.6502299979149253 1.552804568569881 -1.6642254052766952 1.546997456918259 -1.673764717518357 1.5361836616645546 C -1.683304029760019 1.5253698664108484 -1.6873198791974562 1.5107593590188348 -1.6846476915434891 1.4965891064108194 C -1.6786777525069865 1.4724796241972427 -1.660565917486221 1.4532292453703741 -1.6368646784043035 1.445802363744273 C -1.5641428056366435 1.4433519528140581 -1.5774619747250682 1.5512490792573805 -1.6358370867238912 1.551920966125342 Z M -1.3755006867670558 0.9630318877350523 C -1.3989348593093553 0.9993476222811053 -1.4444941764513561 1.0144463418249154 -1.4849787234879357 0.9993137786050041 C -1.5032450482925148 0.9920023468178798 -1.517067442505259 0.9766051993361267 -1.5223733419473655 0.9576588781165769 C -1.527679241389472 0.938712556897026 -1.5238640331640223 0.9183760154372844 -1.5120518119911135 0.9026411151323426 C -1.5062814894780274 0.8920490162727055 -1.4878243619875398 0.9010206820978466 -1.4919742514661292 0.9120870540407513 C -1.5011435310759644 0.9363145040443246 -1.5018944634578042 0.9688812557620166 -1.4697229393095026 0.9776553078024623 C -1.4414881893557348 0.9852137506944785 -1.4115138522675277 0.9746096220076115 -1.3943135190699942 0.9509774468686727 C -1.3861323083836325 0.939911074925768 -1.3678727946778397 0.9513726744380631 -1.3755006867670558 0.9630318877350523 Z M -1.2285155537111172 1.825418444142847 C -1.2307254082107153 1.8271745637205683 -1.2335915336902719 1.8278790006531436 -1.2363636751021465 1.8273473570947 C -1.2391358165140218 1.8268157135362593 -1.2415379799522805 1.825100919824926 -1.2429413599938322 1.822651851157119 C -1.2486326369930405 1.807988908332772 -1.241755677285664 1.794472125459651 -1.2598175772067624 1.785263323092877 C -1.273705899997592 1.7783434483027745 -1.289853818567437 1.7775410672558252 -1.3043597242769536 1.783050048704295 C -1.314587208026439 1.7870256379156761 -1.3227322068286385 1.7950284832299017 -1.3268872361063058 1.8051843911226184 C -1.3310422653839735 1.815340299015333 -1.3308423748815015 1.8267572417934286 -1.3263343771350076 1.836761475384323 C -1.3157359353373037 1.85662693954642 -1.2965801929364096 1.8705053769632012 -1.2744014745172332 1.8743871399901995 C -1.2572090752487917 1.8781022791424604 -1.2654298086920925 1.9024482974168495 -1.2823060259050223 1.8989307720492836 C -1.318049654724011 1.8928913993469765 -1.3470566978270513 1.8666895006885444 -1.356687854464118 1.831742085253075 C -1.36256435469256 1.8011191055268738 -1.3463795830204517 1.7705241361324937 -1.3177579388792564 1.7581507118327613 C -1.293016032660129 1.747812112581641 -1.2647116239203102 1.7507915240279375 -1.24266470069526 1.76605526322055 C -1.2270927344613154 1.778425886142439 -1.2082799021583772 1.8098464779089012 -1.2285155537111174 1.8252998758720276 Z M -1.1611292531302149 1.6228247920738115 C -1.164719498688669 1.6315194578301369 -1.164719498688669 1.6412822603345436 -1.1611292531302149 1.6499769260908677 C -1.1556751126726403 1.6610432980337726 -1.1457153779240261 1.6657860288664454 -1.1385617589180772 1.6753900588026087 C -1.1330680957035635 1.6827017688363144 -1.1362299162586793 1.6962580744663733 -1.1478496067987294 1.6945585959179987 C -1.1709964677711033 1.68861204448541 -1.1886564510582178 1.6698782050929224 -1.1932278771901632 1.6464209949021282 C -1.197799303322108 1.622963784711338 -1.1884663391356607 1.5989694618915706 -1.1692463271784368 1.584766300723048 C -1.1500263152212133 1.5705631395545248 -1.1243493280131807 1.568685887306355 -1.1032679369715988 1.5799426007950563 C -1.099299742260473 1.5809830647185197 -1.0962327111021615 1.5841333290993438 -1.0952988483854367 1.58812795484749 C -1.0943649856687114 1.5921225805956336 -1.0957175372334387 1.5963060540400225 -1.0988131926096394 1.5989979032618833 C -1.1019088479858397 1.6016897524837428 -1.106239613547081 1.602448248000353 -1.110065851165097 1.600968707486576 C -1.1301534422773982 1.5937123529822754 -1.1524353803556304 1.603197698139418 -1.1611292531302149 1.622706223802994 Z M -1.842975855840905 1.6440880353069653 C -1.8434144576854679 1.6246870263075577 -1.853271089378611 1.6067143012736484 -1.8693948017295001 1.595915346611322 C -1.885518514080389 1.5851163919489957 -1.9058902110870146 1.5828435095171556 -1.9239975075657438 1.589823290029794 C -1.92651290177848 1.5907618881147192 -1.928443621479473 1.5928242477953267 -1.9292145114816845 1.595395998758188 C -1.9486937795902535 1.608088092259043 -1.9585825530173142 1.6312851205945553 -1.9542514305104037 1.6541274606960008 C -1.949920308003493 1.6769698007974463 -1.9322264290813491 1.6949368988430065 -1.9094531330122118 1.6996175088061873 C -1.8759911852219486 1.7017903218341486 -1.8467250001432398 1.677291636583956 -1.8429758558409053 1.643969467036145 Z M -1.9088207689011887 1.6764966959969003 C -1.9428893853825597 1.675469104316487 -1.941308475105002 1.6102565553672288 -1.9073189041375087 1.6102960781241666 C -1.8969499507535779 1.6101656820169756 -1.886845083070324 1.6135664926579616 -1.8786649053567732 1.6199396308172695 C -1.8709298688408387 1.6261750431624482 -1.8671913314694468 1.6361192498547723 -1.8689027843928534 1.6459060821261566 C -1.8732163062266052 1.6642980843626187 -1.8899422384003555 1.6770660979328764 -1.9088207689011887 1.6763781277260823 Z M -2.0756068031835393 1.0886352092870233 C -2.0797243824535916 1.0887223626336537 -2.0835544187019357 1.0865317069403015 -2.0855668784801025 1.0829383713878862 C -2.0875793382582697 1.0793450358354708 -2.0874461686958963 1.0749347732698062 -2.0852205687372054 1.0714694075495874 C -2.082994968778515 1.068004041829367 -2.0790397354655403 1.066048465323481 -2.0749349163155775 1.0663838971303972 C -2.0623823127717107 1.067078133018982 -2.0501437600794117 1.062304564708221 -2.041376236291573 1.0532945510662677 C -2.032608712503735 1.0442845374243142 -2.0281707316182342 1.0319203370021433 -2.029207086537217 1.0193913391299918 C -2.0295498163930206 0.9919082557954275 -2.046858470820621 0.9675030530525113 -2.0726821191700573 0.9580915431176869 C -2.075073048532107 0.9573496762213305 -2.0768809295863866 0.955380282774714 -2.0774159944442756 0.9529347531175489 C -2.077951059302165 0.9504892234603839 -2.0771307689849006 0.9479448044207208 -2.075268092046943 0.9462722780887849 C -2.0734054151089847 0.9445997517568476 -2.070787687655405 0.944057121650079 -2.068413661420651 0.9448514195431397 C -2.0298282626747373 0.9537990079173815 -2.0038980953787098 0.9900199987878102 -2.0078647977901865 1.0294301193924824 C -2.0106433549122436 1.0642586174950157 -2.0407237352882897 1.090495588709827 -2.0756068031835393 1.0885166410162042 Z M -0.9613812395607837 1.3639507341237183 C -0.9929994451119399 1.3671125546788327 -1.03837157007785 1.4071095847010455 -1.0053700680338302 1.4363564248358656 C -0.9920904217023447 1.4480156381328562 -1.0108242084914048 1.4683303351994743 -1.0251314465033032 1.458410123207798 C -1.0831508536896752 1.418096911130073 -1.023866718281257 1.3226494531225184 -0.9607488754497606 1.3469164258830313 C -0.9528838468189103 1.3499201554103912 -0.9515400730829862 1.3629626652002433 -0.9613812395607837 1.3639507341237183 Z M -0.8925721197300793 1.2401259366340003 C -0.9212653994594731 1.2304565762703206 -0.9433241411259725 1.20722906157119 -0.9515005503260474 1.1780752082398565 C -0.9573026419968771 1.1501541390540686 -0.946387625128221 1.1214020112856455 -0.923518438413274 1.1043652665487222 C -0.9204130329196023 1.1019155647350045 -0.9160174908348768 1.101971147062957 -0.9129750221237565 1.1044985897226633 C -0.9099325534126368 1.1070260323823722 -0.9090719303423247 1.1113368568446553 -0.9109106789497501 1.1148387971375426 C -0.9228423093946416 1.1316111573732115 -0.9275411999958607 1.1524713838301384 -0.9239531887396022 1.1727396360530982 C -0.9174179748394313 1.1916658375765306 -0.9028270366280444 1.2067199801755801 -0.8841142497451449 1.2138433032695999 C -0.8669613732336425 1.2213131043310614 -0.8753006749477601 1.2475957376954607 -0.8924930742162014 1.2401259366339992 Z M -2.104418892992031 1.7132133371931806 C -2.1235874301074196 1.7190627052201446 -2.1316895952799033 1.6881559092938883 -2.1117306030257357 1.683334132947338 C -2.0908416483316112 1.6778225867845822 -2.077718705708915 1.6571565354102589 -2.081614262238259 1.6359068246206014 C -2.0858036744737873 1.6131021938668328 -2.1017708682771215 1.6030634136043398 -2.1235874301074196 1.596107408383085 C -2.126426701411637 1.595256616336831 -2.1283350859032946 1.592598084485917 -2.1282329396441946 1.5896358429720174 C -2.1281307933850946 1.5866736014581164 -2.1260438126008365 1.5841528408236134 -2.123152679781091 1.5834996489195632 C -2.1065842614888775 1.580385462594382 -2.0894806115531748 1.5846317904147922 -2.076292641126798 1.595133603458581 C -2.063104670700421 1.6056354165023707 -2.0551366565592306 1.6213540962092448 -2.0544621282212034 1.6381991445230621 C -2.0498665416942345 1.6721870398352148 -2.0712204603537514 1.7043025213057073 -2.104339847478153 1.713213337193182 Z" fill="#595959" transform="matrix(1,0,0,1,0,0)" fill-rule="nonzero"></path></g><g clip-path="url(#SvgjsClipPath483811d615cd4-fcaa-4c7a-8cdb-b8c5da788997)"><path d=" M -0.5672603073656177 0.9061586404999098 C -0.5772622480200285 0.8645264313679972 -0.6000702296685094 0.8270798724069448 -0.6324728563148783 0.7990914919523051 C -0.5863007950035843 0.7860714815473946 -0.5433396639676373 0.7635949499590389 -0.5063162161657635 0.733088487864267 C -0.42811822666812405 0.6628191086810737 -0.3889286349495269 0.5589423721512972 -0.40122520546510665 0.45453209695857755 C -0.41072819221633927 0.35403687409074247 -0.46374350801490727 0.2627367306751739 -0.5463132461879756 0.20466922759056294 C -0.5773441009994678 0.18267638218978877 -0.6124341313148309 0.16706588631442398 -0.6495466873125031 0.15874378402750844 C -0.6436577965285997 0.15020686852869602 -0.6388360201820482 0.1407609296202873 -0.6333423569675352 0.13107785417024653 C -0.5710544920317568 0.02262740912977912 -0.588365459571015 -0.06258365483058714 -0.6488748004445408 -0.16139054717795187 C -0.7077637082835699 -0.25778655135203954 -0.9324505814814756 -0.4279320199742009 -0.9250993486908317 -0.663961924413585 C -0.9239927114965414 -0.6995324056586358 -0.9711828832816423 -0.7020223393457888 -0.9831187558772037 -0.6718664758013738 C -1.0412172085774538 -0.526501775779931 -1.1337399825715258 -0.49294695513876674 -1.2806855928705252 -0.4549655857204391 C -1.3839674028549593 -0.4250348184927068 -1.4747682306189966 -0.36243937919416225 -1.5394806053067414 -0.27655986089803913 C -1.5742259934654612 -0.23248005467890798 -1.5962572990066333 -0.17973885859740546 -1.603191289492322 -0.12404154187064786 C -1.805784342293967 -0.19600892971311668 -2.0312647931469936 -0.11907549094656644 -2.1476172663262982 0.06171541574239703 C -2.2229871638088676 0.17538286469880493 -2.2586762133247356 0.32256561153943775 -2.1622406863937083 0.4297513283578591 C -2.127730381389079 0.4666517597822273 -2.083488435851961 0.49304073070340726 -2.034621704237853 0.5058721582222676 C -2.2273346670721517 0.5885537657385431 -2.2139759752267882 0.8213428041089326 -2.137183258494417 0.9115732582005442 C -2.0362026145154104 1.030141529017382 -1.8091443759011678 1.1037329024376985 -1.65200189431192 1.0976859206260403 C -1.5132012303885758 1.0869601444239687 -1.3796454266645508 1.0399975628287648 -1.2646788763102526 0.9614905002144336 C -1.2568034046015701 1.0328698005920138 -1.227228305790005 1.1001172850632737 -1.179942085433153 1.1541639402917938 C -1.1284359977421683 1.2059637119281443 -1.0633007929503473 1.2421012114097416 -0.9920904217023443 1.2583854503397929 C -0.8770131752467061 1.284595212954971 -0.7563649601517779 1.2535423589599495 -0.6682409513446235 1.1750319559555558 C -0.5882490601556658 1.1103972863310063 -0.5495931113319592 1.0074710946098022 -0.5672603073656177 0.9061586404999098 Z" fill="#d3b39f" transform="matrix(1,0,0,1,0,0)" fill-rule="nonzero"></path></g><g clip-path="url(#SvgjsClipPath483811d615cd4-fcaa-4c7a-8cdb-b8c5da788997)"><path d=" M -0.6404564532165449 0.150246391285634 C -0.6415121152136327 0.14718874890485867 -0.6445560021168755 0.145280149549311 -0.6477681632502499 0.14566175148071592 C -0.7454509991619422 0.15000283787809998 -0.842570629836497 0.12872044967472474 -0.9294863747110538 0.08392720514208263 C -0.964701151143655 0.06784144306793127 -1.0000344958470724 0.052743749917254834 -1.035525931578246 0.038120329849844814 C -0.9816564138704627 0.019307497546907193 -0.9172343200599813 0.020572225768953345 -0.8624953016995418 0.002549848604794125 C -0.8193203915392828 -0.011154202321650986 -0.7805946665969181 -0.036152626597340976 -0.7503297175068138 -0.06985584210735474 C -0.6717979994691288 -0.15731970321324085 -0.7491045120417068 -0.27932645388376726 -0.7966503886392582 -0.3555658520189926 C -0.802420711152344 -0.36485369989964545 -0.8179531546293497 -0.3577791264075743 -0.8127361507134088 -0.3476613006312038 C -0.7659807292546361 -0.25802368789367536 -0.6941678798965722 -0.1477947187909573 -0.792263362619035 -0.06037038044200804 C -0.8671194642613977 0.006344033270931249 -0.9719733384204208 -0.008516523338110704 -1.0603067001789641 0.01697565488750752 C -1.0643795803827634 0.01799947206059449 -1.0678777305303604 0.02060175448746604 -1.070029298385945 0.02420831940733459 C -1.1276139552459887 0.0013641658966240255 -1.1858704989739943 -0.019740986308772634 -1.245747475736497 -0.038830477910282823 C -1.3435770569737144 -0.07394624309628484 -1.4440979118732147 -0.10105581224801063 -1.5463180422571834 -0.11989165239206079 C -1.5456805794590522 -0.12130615956900792 -1.5452161238495274 -0.12279241751948677 -1.544934745764316 -0.12431820116922043 C -1.5316550994328306 -0.20676267214386246 -1.3552255124573773 -0.1638409581081668 -1.3026602457285792 -0.15392074611649154 C -1.2241527253713702 -0.13367621339782487 -1.142836997851444 -0.12655824940240257 -1.0620061787273387 -0.13285511666803285 C -0.9881411862155351 -0.14335814530860347 -0.9256514785575718 -0.19281532089580344 -0.8984610105139825 -0.2622921456430816 C -0.8583454122209524 -0.35129739426958634 -0.9009509442011359 -0.456625541511877 -0.9142701132895603 -0.5449589032704201 C -0.9144660662934352 -0.54730744130929 -0.9160086090358215 -0.5493281723018164 -0.9182223889834551 -0.5501363844294199 C -0.9171930555061529 -0.5847561418800813 -0.9188580325606108 -0.6194035215371291 -0.9232022563577624 -0.6537650531233385 C -0.9239927114965414 -0.6620648320805153 -0.937865199182111 -0.6608396266154084 -0.9380628129668056 -0.6525793704151684 C -0.9404341783831427 -0.5558671841855676 -0.9425684072578455 -0.4650438887398703 -1.0420076637162328 -0.413861918503936 C -1.1312895716413112 -0.3678574294270042 -1.2410442676607634 -0.3589648091157406 -1.337084567022401 -0.3342630860288994 C -1.427986907981976 -0.3108260911641057 -1.6301062869677443 -0.24948677239486028 -1.5979347628194425 -0.12601767971759503 C -1.6521349593819274 -0.13034193421637574 -1.7066733118934414 -0.12709623714008111 -1.7599780662691198 -0.11637412702449235 C -1.8951590947032018 -0.09169621955452956 -2.011725734227236 -0.0067591200111812855 -2.0766343948639525 0.11435972798507277 C -2.1354047344321643 0.23027997408699907 -2.1178171075943335 0.4063933790069425 -1.9883405558623477 0.45974910087451804 C -2.0083265668440817 0.47401078052686496 -2.02723047821809 0.4897310143039928 -2.0448976210419794 0.5067811816318639 C -2.048929302306441 0.5112465064735603 -2.048977808232145 0.5180234647159201 -2.045010457677547 0.5225460424473707 C -2.041043107122949 0.5270686201788224 -2.034317553928806 0.5279031560236382 -2.0293651775649733 0.5244873767405114 C -1.8044411678254335 0.33201155044784647 -1.4622136154911032 0.283991400767027 -1.17930972132213 0.26426954505449307 C -1.0097570940540535 0.25241271797280995 -0.7746757357812046 0.3003142993828116 -0.6384407926126592 0.16795258639428268 C -0.6358792611826485 0.16555184798489597 -0.6346036823450265 0.16208131552026928 -0.6350007727580178 0.1585931487551694 C -0.6353978631710091 0.1551049819900694 -0.6374208603721254 0.15200995706556708 -0.6404564532165449 0.15024639128563533 Z M -1.0918063374593043 -0.36362849443453726 C -1.0277004257043345 -0.3860774203758587 -0.9703529053859243 -0.4124786220110732 -0.93790472193905 -0.47401555456501254 C -0.932743183452009 -0.48387114940884435 -0.9286364113280141 -0.49424406093493456 -0.9256526672879768 -0.5049618732482072 C -0.9137958402062933 -0.406431640199415 -0.8846280455853512 -0.3138298206914645 -0.9519748234093146 -0.22217654735005082 C -1.0137093697479476 -0.13826973436866863 -1.1491143350207755 -0.1646709360038845 -1.2349182403352261 -0.17870151471721007 C -1.3155051417337367 -0.19194163829175725 -1.5511002958467914 -0.25533614042182584 -1.5756834506628157 -0.129298068543529 C -1.617775186802793 -0.28537343569542417 -1.1871747499529801 -0.33035033309194434 -1.0918063374593043 -0.36362849443453726 Z M -1.958145169560993 0.43943440380789833 C -1.9584218288595656 0.43943440380789833 -1.9585799198873213 0.4391182217523866 -1.9588170564289549 0.43903917623851063 C -2.1393570101260586 0.36730537239432337 -2.0858431972307265 0.13645294911394168 -1.9710295883230893 0.025473047629383294 C -1.8713927180800072 -0.07080438827388902 -1.7209691051703802 -0.10443825442893184 -1.5876588460153167 -0.09598038444399803 C -1.5069990241580218 -0.08540025723905387 -1.4277598663617581 -0.06591521843669434 -1.3513918050343 -0.03788193174374854 C -1.2641255577131074 -0.012310708004250381 -1.1774916745029387 0.015078562554440289 -1.0923991788133889 0.046578199834779954 C -0.9812216635441344 0.087839958079039 -0.8776720403640972 0.15162968777849684 -0.7618703625329863 0.16613453957509017 C -0.8983819650001046 0.1613918087424161 -1.0216534438926763 0.10404428842400704 -1.1484424481528137 0.05215090856317173 C -1.2626998948955601 0.001856342440011094 -1.3875551337860426 -0.019626901382122752 -1.512051811991114 -0.010413615671177934 C -1.625330510497693 0.0008981188763467207 -1.7311059826658448 0.05140251704517618 -1.8111205137481157 0.13238210514923066 C -1.8822614762382175 0.20431352277811177 -1.940241360667651 0.3102345113744869 -1.899493398263598 0.40647242452082 C -1.9198080953302157 0.4166692958110678 -1.9394113827719328 0.42753805396927724 -1.9581846923179318 0.43943440380789967 Z M -0.9645035373589603 0.23545745524600037 C -1.0633104297063247 0.238579753044177 -1.1617220944842992 0.23545745524600037 -1.260726600616358 0.24411293901562947 C -1.406510889222376 0.25626717636021557 -1.550635473207314 0.28355296286963194 -1.690773718869024 0.32552981830985606 C -1.7547544331998388 0.3444086322666444 -1.8172847246194024 0.3678938156515166 -1.8778744502179938 0.39580128014730165 C -1.9282659653151502 0.27280646055330426 -1.8014374382980736 0.13850813247476623 -1.6997849074511053 0.07780117781654583 C -1.599236932860804 0.02330593759608146 -1.4843033065206384 0.0012192450493281326 -1.3707184331774438 0.014564766714234456 C -1.243257542049344 0.026777298608367528 -1.1300248434192646 0.08499431957943482 -1.0137488925048868 0.13072214935779403 C -0.910556720910785 0.17452840508825018 -0.7976573565296294 0.19042127709940737 -0.6863818967796 0.1768056839486044 C -0.7667711843934155 0.22739481283045693 -0.8734826281285686 0.2325722939894581 -0.9645430601158993 0.2354574552460016 Z M -0.5958352606324759 0.6026238672088053 C -0.7327816134259222 0.6652674369570348 -0.895141098931111 0.6531734733337171 -1.0410986403066371 0.6520668361394268 C -1.1808511088427491 0.6509601989451368 -1.3287057425513449 0.6451503536751104 -1.464308321608867 0.6896529779883629 C -1.5263590500030118 0.7100467205688585 -1.5971443076806633 0.744984837702888 -1.6233083727742457 0.8086559991315292 C -1.6616919285775258 0.9007976274402529 -1.6322101231289676 1.007238855302119 -1.551890750985571 1.0665024654012099 C -1.5478287211380068 1.070113949189818 -1.5467424558249148 1.0760248741670562 -1.5492550623043764 1.0808445951462464 C -1.551767668783838 1.0856643161254367 -1.5572356206999056 1.0881584108029763 -1.5625223726021473 1.0868962079817055 C -1.6880466486402386 1.042709765723965 -1.716661124664035 0.8435941162655562 -1.6297110593983548 0.7470004983067733 C -1.5441047678685988 0.6515925630561592 -1.4044313448463646 0.6281950909483021 -1.2831360038007407 0.6187096292829555 C -1.1455968096532099 0.6079594393955625 -1.0090061616722135 0.617958696901115 -0.8716645813093773 0.6178796513872378 C -0.7724624613926239 0.6178796513872378 -0.6356741996269328 0.6198953119911241 -0.5563520264504689 0.5471734392234648 C -0.46620061787273404 0.46445230895025147 -0.47284044103847656 0.3572665921318303 -0.53082032546791 0.2701189130814561 C -0.5258494706518193 0.2927448394986206 -0.5267336841650316 0.31626491895007613 -0.5333893046689411 0.33845375982889525 C -0.5563974097649318 0.4090049453790734 -0.6126741625403256 0.46369997697060494 -0.6838524403355077 0.48468796050299234 C -0.8638390754354661 0.5483986446885729 -1.074534892676985 0.5018803597714341 -1.258078575901449 0.4929877394601716 C -1.4256945880795173 0.48476700601687095 -1.6041398356588572 0.4835813233087023 -1.7662621846224122 0.5389131830232261 C -1.8529862328730449 0.5647217599225283 -1.9302124609490612 0.615450004775453 -1.9883405558623477 0.6847916788848747 C -2.0539088096240583 0.7711093800395312 -2.0970676602013874 0.9016925689658082 -2.003517294526903 0.9809356966283937 C -1.9894471930566382 0.9927925237100781 -2.0060072282140564 1.0172175874983467 -2.0206306482814664 1.0052421921458456 C -2.1453249464238398 0.9032339564864282 -2.082009489807649 0.7041578297849589 -1.9703972242120664 0.6074851663122973 C -1.849220451437259 0.5026312921532743 -1.6838572364047102 0.46761412950536885 -1.5287304154193486 0.45710107615960904 C -1.34498911841019 0.4446514077238415 -1.1660695977475835 0.46919503978292676 -0.9838696882590439 0.48053807102440294 C -0.8792134278847159 0.48705932591932877 -0.7459426914865914 0.4971376289387599 -0.6496652555833191 0.4428728836615883 C -0.6043996868115173 0.4201866488845978 -0.5705891761627466 0.3797199623460388 -0.5563125036935301 0.33114204979518824 C -0.5430328573620444 0.27213457368534255 -0.5681693307752134 0.23407415875313886 -0.6066249732768074 0.19328667359214635 C -0.6129881371439783 0.18656780491252634 -0.6033445844508756 0.17747757081656745 -0.5959143061463532 0.1816669830520964 C -0.5820905906051979 0.18921763771828126 -0.569798990217323 0.19928415014062983 -0.5596719380333401 0.21134857351324354 C -0.5577574851638833 0.2114497989138837 -0.555951346550311 0.21226820547315806 -0.5546130251451549 0.21364089341570258 C -0.44296123679263344 0.3253717272821026 -0.42339747210785483 0.523736444358671 -0.595874783389414 0.6026238672088067 Z M -0.7708025056011878 1.0025546446739975 C -0.8396511481888309 1.0223160231434707 -0.9101992693248491 1.0332638268155574 -0.9794826622388209 1.0510095446811443 C -1.0616504739148889 1.0720356513726648 -1.1178123115251306 1.0973697385705283 -1.1425535573689105 1.1835688714543684 C -1.1457153779240261 1.1947142889111517 -1.1647653467685977 1.1940424020431888 -1.1657929384490107 1.1823831887462009 C -1.1917593897578975 0.9050124805486801 -0.5726749250662535 1.0922713029254045 -0.6309709915511981 0.8208685310256647 C -0.7105303012692954 0.8740266391085463 -0.8266876839128567 0.8740661618654857 -0.9170367062752867 0.8791250747536703 C -1.0409405492788812 0.886120602731864 -1.1651210515810486 0.8975031567302807 -1.2619518060814658 0.9848879723222881 C -1.2685172820389994 0.9904951058214901 -1.2783670448211395 0.9897977027805751 -1.2840769661432043 0.9833214215079122 C -1.2897868874652683 0.9768451402352494 -1.2892448220388877 0.9669856086571553 -1.282859344502168 0.961174318158923 C -1.1980830308681294 0.8824449863365422 -1.0908577912927702 0.8574666039511285 -0.9785341160722862 0.84877159742456 C -0.91616720562263 0.8439498210780088 -0.8536422041452181 0.8418155922033068 -0.7913938619663787 0.8346224504404178 C -0.7358191984054434 0.8257361797932949 -0.6811332073692098 0.8119820248531062 -0.6279672620238368 0.7935187832239161 C -0.6233697335798372 0.7925314592929125 -0.6186622375771822 0.7946353599385001 -0.6163311659522275 0.798719252862838 C -0.6140000943272732 0.8028031457871756 -0.6145823467307849 0.8079264160982293 -0.6177703907335903 0.8113830693603181 C -0.6177703907335903 0.8116992514158299 -0.617454208678079 0.8118573424435847 -0.6173356404072619 0.8121735244990964 C -0.5811723178081267 0.925090041073664 -0.6721932270385185 0.973900645893262 -0.7708025056011878 1.0025546446739975 Z" fill="#876a57" transform="matrix(1,0,0,1,0,0)" fill-rule="nonzero"></path></g></g><g><path d=" M 0.37646484375 1.27294921875 Q 0.34716796875 1.27294921875 0.3131103515625 1.2681884765625 Q 0.279052734375 1.263427734375 0.2449951171875 1.248046875 Q 0.2109375 1.232666015625 0.1798095703125 1.2044677734375 Q 0.148681640625 1.17626953125 0.1248779296875 1.130126953125 Q 0.10107421875 1.083984375 0.0867919921875 1.0162353515625 Q 0.072509765625 0.948486328125 0.072509765625 0.854736328125 L 0.072509765625 0.41162109375 Q 0.072509765625 0.317138671875 0.087158203125 0.2501220703125 Q 0.101806640625 0.18310546875 0.1259765625 0.1373291015625 Q 0.150146484375 0.091552734375 0.181640625 0.064453125 Q 0.213134765625 0.037353515625 0.246826171875 0.0230712890625 Q 0.280517578125 0.0087890625 0.3138427734375 0.00439453125 Q 0.34716796875 0 0.375732421875 0 Q 0.450439453125 0 0.5006103515625 0.0208740234375 Q 0.55078125 0.041748046875 0.5811767578125 0.0780029296875 Q 0.611572265625 0.1142578125 0.6243896484375 0.16259765625 Q 0.63720703125 0.2109375 0.63720703125 0.26513671875 Q 0.63720703125 0.305419921875 0.6331787109375 0.3394775390625 Q 0.629150390625 0.37353515625 0.62109375 0.41455078125 L 0.46728515625 0.41455078125 L 0.46728515625 0.350830078125 Q 0.46728515625 0.24755859375 0.444580078125 0.1962890625 Q 0.421875 0.14501953125 0.3779296875 0.14501953125 Q 0.3515625 0.14501953125 0.331787109375 0.1552734375 Q 0.31201171875 0.16552734375 0.298828125 0.1900634765625 Q 0.28564453125 0.214599609375 0.2786865234375 0.2548828125 Q 0.271728515625 0.295166015625 0.271728515625 0.355224609375 L 0.271728515625 0.926513671875 Q 0.271728515625 0.985107421875 0.2772216796875 1.02392578125 Q 0.28271484375 1.062744140625 0.295166015625 1.086181640625 Q 0.3076171875 1.109619140625 0.3277587890625 1.1195068359375 Q 0.347900390625 1.12939453125 0.37646484375 1.12939453125 Q 0.394775390625 1.12939453125 0.41162109375 1.1209716796875 Q 0.428466796875 1.112548828125 0.4412841796875 1.0946044921875 Q 0.4541015625 1.07666015625 0.4617919921875 1.0491943359375 Q 0.469482421875 1.021728515625 0.469482421875 0.984375 L 0.469482421875 0.862060546875 L 0.64306640625 0.862060546875 L 0.64306640625 0.977783203125 Q 0.64306640625 1.128662109375 0.57421875 1.200439453125 Q 0.50537109375 1.272216796875 0.37646484375 1.27294921875 M 0.93017578125 0.010986328125 L 1.1484375 0.010986328125 L 1.3798828125 1.261962890625 L 1.18798828125 1.261962890625 L 1.153564453125 1.037841796875 L 0.925048828125 1.037841796875 L 0.89208984375 1.261962890625 L 0.699462890625 1.261962890625 L 0.93017578125 0.010986328125 M 1.131591796875 0.89501953125 L 1.043701171875 0.271728515625 L 1.03564453125 0.271728515625 L 0.947021484375 0.89501953125 L 1.131591796875 0.89501953125 M 1.500732421875 0.010986328125 L 1.6904296875 0.010986328125 L 1.6904296875 0.557373046875 L 1.6962890625 0.557373046875 L 1.9130859375 0.010986328125 L 2.10205078125 0.010986328125 L 1.8603515625 0.59765625 L 2.129150390625 1.261962890625 L 1.92626953125 1.261962890625 L 1.6962890625 0.66650390625 L 1.6904296875 0.66650390625 L 1.6904296875 1.261962890625 L 1.500732421875 1.261962890625 L 1.500732421875 0.010986328125 M 2.23681640625 0.010986328125 L 2.700439453125 0.010986328125 L 2.700439453125 0.160400390625 L 2.426513671875 0.160400390625 L 2.426513671875 0.53466796875 L 2.63818359375 0.53466796875 L 2.63818359375 0.68408203125 L 2.426513671875 0.68408203125 L 2.426513671875 1.112548828125 L 2.707763671875 1.112548828125 L 2.707763671875 1.261962890625 L 2.23681640625 1.261962890625 L 2.23681640625 0.010986328125 M 2.764892578125 0.010986328125 L 2.946533203125 0.010986328125 L 3.03076171875 0.766845703125 L 3.040283203125 0.943359375 L 3.05859375 0.943359375 L 3.076171875 0.744873046875 L 3.2109375 0.010986328125 L 3.362548828125 0.010986328125 L 3.491455078125 0.744873046875 L 3.506103515625 0.943359375 L 3.525146484375 0.943359375 L 3.533935546875 0.766845703125 L 3.61083984375 0.010986328125 L 3.793212890625 0.010986328125 L 3.6181640625 1.261962890625 L 3.425537109375 1.261962890625 L 3.322265625 0.66064453125 L 3.2900390625 0.399169921875 L 3.275390625 0.399169921875 L 3.243896484375 0.66064453125 L 3.135498046875 1.261962890625 L 2.945068359375 1.261962890625 L 2.764892578125 0.010986328125 M 4.065673828125 0.010986328125 L 4.283935546875 0.010986328125 L 4.515380859375 1.261962890625 L 4.323486328125 1.261962890625 L 4.2890625 1.037841796875 L 4.060546875 1.037841796875 L 4.027587890625 1.261962890625 L 3.8349609375 1.261962890625 L 4.065673828125 0.010986328125 M 4.26708984375 0.89501953125 L 4.17919921875 0.271728515625 L 4.171142578125 0.271728515625 L 4.08251953125 0.89501953125 L 4.26708984375 0.89501953125 M 4.63623046875 0.010986328125 L 4.825927734375 0.010986328125 L 4.825927734375 1.112548828125 L 5.08447265625 1.112548828125 L 5.08447265625 1.261962890625 L 4.63623046875 1.261962890625 L 4.63623046875 0.010986328125 M 5.34228515625 0.010986328125 L 5.560546875 0.010986328125 L 5.7919921875 1.261962890625 L 5.60009765625 1.261962890625 L 5.565673828125 1.037841796875 L 5.337158203125 1.037841796875 L 5.30419921875 1.261962890625 L 5.111572265625 1.261962890625 L 5.34228515625 0.010986328125 M 5.543701171875 0.89501953125 L 5.455810546875 0.271728515625 L 5.44775390625 0.271728515625 L 5.359130859375 0.89501953125 L 5.543701171875 0.89501953125" fill="#595959" fill-rule="nonzero"></path></g><g></g></g><defs><clipPath id="SvgjsClipPath48383"><path d=" M -2.2206948439064087 -0.6925764004373813 h 1.8206948439064088 v 2.6471156914997627 h -1.8206948439064088 Z"></path></clipPath><clipPath id="SvgjsClipPath483811d615cd4-fcaa-4c7a-8cdb-b8c5da788997"><path d=" M -2.2206948439064087 -0.6925764004373813 L -0.3999999999999999 -0.6925764004373813 L -0.3999999999999999 1.9545392910623813 L -2.220694843906409 1.9545392910623813 Z"></path></clipPath></defs></svg>